<mxfile host="app.diagrams.net" modified="2024-02-13T14:18:50.550Z" agent="Mozilla/5.0 (Windows NT 10.0; Win64; x64; rv:104.0) Gecko/20100101 Firefox/104.0" etag="-napkjYx6-bPsK2pTJSl" version="23.1.3" type="device">
  <diagram name="Page-1" id="OSj4ofIRMlWWjkcrT2lz">
    <mxGraphModel dx="1366" dy="710" grid="1" gridSize="10" guides="1" tooltips="1" connect="1" arrows="1" fold="1" page="1" pageScale="1" pageWidth="850" pageHeight="1100" math="0" shadow="0">
      <root>
        <mxCell id="0" />
        <mxCell id="1" parent="0" />
        <mxCell id="ZItJcLic4sxObj78y93I-1" value="" style="edgeStyle=orthogonalEdgeStyle;rounded=0;orthogonalLoop=1;jettySize=auto;html=1;" edge="1" parent="1" source="ZItJcLic4sxObj78y93I-2" target="ZItJcLic4sxObj78y93I-5">
          <mxGeometry relative="1" as="geometry" />
        </mxCell>
        <mxCell id="ZItJcLic4sxObj78y93I-2" value="Initialize local variables and setup" style="rounded=0;whiteSpace=wrap;html=1;" vertex="1" parent="1">
          <mxGeometry x="390" y="20" width="120" height="40" as="geometry" />
        </mxCell>
        <mxCell id="ZItJcLic4sxObj78y93I-3" value="" style="edgeStyle=orthogonalEdgeStyle;rounded=0;orthogonalLoop=1;jettySize=auto;html=1;" edge="1" parent="1" source="ZItJcLic4sxObj78y93I-5">
          <mxGeometry relative="1" as="geometry">
            <mxPoint x="450" y="220" as="targetPoint" />
          </mxGeometry>
        </mxCell>
        <mxCell id="ZItJcLic4sxObj78y93I-4" value="&lt;div&gt;&lt;font style=&quot;font-size: 10px;&quot;&gt;(&lt;i&gt;Receive REGISTERED&lt;br&gt;&lt;/i&gt;&lt;/font&gt;&lt;/div&gt;&lt;div style=&quot;font-size: 10px;&quot;&gt;&lt;font style=&quot;font-size: 10px;&quot;&gt;&lt;i&gt;with key-pair + pseudonym)&lt;/i&gt;&lt;/font&gt;&lt;/div&gt;" style="edgeLabel;html=1;align=center;verticalAlign=middle;resizable=0;points=[];" vertex="1" connectable="0" parent="ZItJcLic4sxObj78y93I-3">
          <mxGeometry x="0.15" y="-1" relative="1" as="geometry">
            <mxPoint x="1" y="-8" as="offset" />
          </mxGeometry>
        </mxCell>
        <mxCell id="ZItJcLic4sxObj78y93I-5" value="Send registration request to Blockchain via User-Smart Contract (USC)" style="rounded=0;whiteSpace=wrap;html=1;" vertex="1" parent="1">
          <mxGeometry x="390" y="100" width="120" height="60" as="geometry" />
        </mxCell>
        <mxCell id="ZItJcLic4sxObj78y93I-6" style="edgeStyle=orthogonalEdgeStyle;rounded=0;orthogonalLoop=1;jettySize=auto;html=1;exitX=1;exitY=0.25;exitDx=0;exitDy=0;entryX=1;entryY=0.75;entryDx=0;entryDy=0;" edge="1" parent="1" source="ZItJcLic4sxObj78y93I-5" target="ZItJcLic4sxObj78y93I-5">
          <mxGeometry relative="1" as="geometry">
            <Array as="points">
              <mxPoint x="540" y="115" />
              <mxPoint x="540" y="145" />
            </Array>
          </mxGeometry>
        </mxCell>
        <mxCell id="ZItJcLic4sxObj78y93I-7" value="&lt;div style=&quot;font-size: 10px;&quot;&gt;&lt;font style=&quot;font-size: 10px;&quot;&gt;&lt;i&gt;(Timeout OR response &lt;br&gt;&lt;/i&gt;&lt;/font&gt;&lt;/div&gt;&lt;div style=&quot;font-size: 10px;&quot;&gt;&lt;font style=&quot;font-size: 10px;&quot;&gt;&lt;i&gt;other than REGISTERED)&lt;br&gt;&lt;/i&gt;&lt;/font&gt;&lt;/div&gt;" style="edgeLabel;html=1;align=center;verticalAlign=middle;resizable=0;points=[];" vertex="1" connectable="0" parent="ZItJcLic4sxObj78y93I-6">
          <mxGeometry x="-0.0113" y="1" relative="1" as="geometry">
            <mxPoint x="60" as="offset" />
          </mxGeometry>
        </mxCell>
        <mxCell id="ZItJcLic4sxObj78y93I-108" style="edgeStyle=orthogonalEdgeStyle;rounded=0;orthogonalLoop=1;jettySize=auto;html=1;exitX=1;exitY=0.5;exitDx=0;exitDy=0;entryX=0;entryY=0.5;entryDx=0;entryDy=0;" edge="1" parent="1" source="ZItJcLic4sxObj78y93I-8" target="ZItJcLic4sxObj78y93I-105">
          <mxGeometry relative="1" as="geometry" />
        </mxCell>
        <mxCell id="ZItJcLic4sxObj78y93I-8" value="For all tasks, send POST TASK to Blockchain" style="rounded=0;whiteSpace=wrap;html=1;" vertex="1" parent="1">
          <mxGeometry x="390" y="220" width="120" height="60" as="geometry" />
        </mxCell>
        <mxCell id="ZItJcLic4sxObj78y93I-34" style="edgeStyle=orthogonalEdgeStyle;rounded=0;orthogonalLoop=1;jettySize=auto;html=1;exitX=0.5;exitY=1;exitDx=0;exitDy=0;entryX=0.5;entryY=0;entryDx=0;entryDy=0;" edge="1" parent="1" source="ZItJcLic4sxObj78y93I-11" target="ZItJcLic4sxObj78y93I-31">
          <mxGeometry relative="1" as="geometry" />
        </mxCell>
        <mxCell id="ZItJcLic4sxObj78y93I-35" value="&lt;div style=&quot;font-size: 10px;&quot;&gt;&lt;font style=&quot;font-size: 10px;&quot;&gt;&lt;i&gt;(Receive status list for which all&lt;/i&gt;&lt;/font&gt;&lt;/div&gt;&lt;div style=&quot;font-size: 10px;&quot;&gt;&lt;font style=&quot;font-size: 10px;&quot;&gt;&lt;i&gt;tasks have status=&quot;Unavailable&quot;)&lt;br&gt;&lt;/i&gt;&lt;/font&gt;&lt;/div&gt;" style="edgeLabel;html=1;align=center;verticalAlign=middle;resizable=0;points=[];" vertex="1" connectable="0" parent="ZItJcLic4sxObj78y93I-34">
          <mxGeometry x="-0.0261" y="-1" relative="1" as="geometry">
            <mxPoint y="-1" as="offset" />
          </mxGeometry>
        </mxCell>
        <mxCell id="ZItJcLic4sxObj78y93I-11" value="Send query request to Blockchain for Task Status" style="rounded=0;whiteSpace=wrap;html=1;" vertex="1" parent="1">
          <mxGeometry x="390" y="320" width="120" height="60" as="geometry" />
        </mxCell>
        <mxCell id="ZItJcLic4sxObj78y93I-26" style="edgeStyle=orthogonalEdgeStyle;rounded=0;orthogonalLoop=1;jettySize=auto;html=1;exitX=1;exitY=0.25;exitDx=0;exitDy=0;entryX=1;entryY=0.75;entryDx=0;entryDy=0;" edge="1" parent="1" source="ZItJcLic4sxObj78y93I-11" target="ZItJcLic4sxObj78y93I-11">
          <mxGeometry relative="1" as="geometry">
            <Array as="points">
              <mxPoint x="540" y="335" />
              <mxPoint x="540" y="365" />
            </Array>
          </mxGeometry>
        </mxCell>
        <mxCell id="ZItJcLic4sxObj78y93I-27" value="&lt;div style=&quot;font-size: 10px;&quot;&gt;&lt;font style=&quot;font-size: 10px;&quot;&gt;&lt;i&gt;(Timeout or response&lt;/i&gt;&lt;/font&gt;&lt;/div&gt;&lt;div style=&quot;font-size: 10px;&quot;&gt;&lt;font style=&quot;font-size: 10px;&quot;&gt;&lt;i&gt;other than task&lt;/i&gt;&lt;/font&gt;&lt;/div&gt;&lt;div style=&quot;font-size: 10px;&quot;&gt;&lt;font style=&quot;font-size: 10px;&quot;&gt;&lt;i&gt;status list)&lt;br&gt;&lt;/i&gt;&lt;/font&gt;&lt;/div&gt;" style="edgeLabel;html=1;align=center;verticalAlign=middle;resizable=0;points=[];" vertex="1" connectable="0" parent="ZItJcLic4sxObj78y93I-26">
          <mxGeometry x="-0.0222" y="1" relative="1" as="geometry">
            <mxPoint x="50" as="offset" />
          </mxGeometry>
        </mxCell>
        <mxCell id="ZItJcLic4sxObj78y93I-28" style="edgeStyle=orthogonalEdgeStyle;rounded=0;orthogonalLoop=1;jettySize=auto;html=1;exitX=0;exitY=0.5;exitDx=0;exitDy=0;entryX=0;entryY=1;entryDx=0;entryDy=0;" edge="1" parent="1">
          <mxGeometry relative="1" as="geometry">
            <mxPoint x="390" y="335" as="sourcePoint" />
            <mxPoint x="390" y="365" as="targetPoint" />
            <Array as="points">
              <mxPoint x="360" y="335" />
              <mxPoint x="360" y="365" />
            </Array>
          </mxGeometry>
        </mxCell>
        <mxCell id="ZItJcLic4sxObj78y93I-29" value="&lt;div style=&quot;font-size: 10px;&quot;&gt;&lt;font style=&quot;font-size: 10px;&quot;&gt;&lt;i&gt;(Receive status list&lt;br&gt;&lt;/i&gt;&lt;/font&gt;&lt;/div&gt;&lt;div style=&quot;font-size: 10px;&quot;&gt;&lt;font style=&quot;font-size: 10px;&quot;&gt;&lt;i&gt;where &amp;gt;0 tasks have&lt;br&gt;&lt;/i&gt;&lt;/font&gt;&lt;/div&gt;&lt;div style=&quot;font-size: 10px;&quot;&gt;&lt;font style=&quot;font-size: 10px;&quot;&gt;&lt;i&gt;status=&quot;Available&quot;)&lt;br&gt;&lt;/i&gt;&lt;/font&gt;&lt;/div&gt;" style="edgeLabel;html=1;align=center;verticalAlign=middle;resizable=0;points=[];" vertex="1" connectable="0" parent="ZItJcLic4sxObj78y93I-28">
          <mxGeometry x="-0.0361" y="-1" relative="1" as="geometry">
            <mxPoint x="-50" as="offset" />
          </mxGeometry>
        </mxCell>
        <mxCell id="ZItJcLic4sxObj78y93I-70" style="edgeStyle=orthogonalEdgeStyle;rounded=0;orthogonalLoop=1;jettySize=auto;html=1;exitX=1;exitY=0.5;exitDx=0;exitDy=0;entryX=0;entryY=0.5;entryDx=0;entryDy=0;" edge="1" parent="1" source="ZItJcLic4sxObj78y93I-31" target="ZItJcLic4sxObj78y93I-41">
          <mxGeometry relative="1" as="geometry" />
        </mxCell>
        <mxCell id="ZItJcLic4sxObj78y93I-31" value="For next task, send PING to all workers" style="rounded=0;whiteSpace=wrap;html=1;" vertex="1" parent="1">
          <mxGeometry x="390" y="440" width="120" height="60" as="geometry" />
        </mxCell>
        <mxCell id="ZItJcLic4sxObj78y93I-56" style="edgeStyle=orthogonalEdgeStyle;rounded=0;orthogonalLoop=1;jettySize=auto;html=1;exitX=1;exitY=0.25;exitDx=0;exitDy=0;entryX=0;entryY=0.25;entryDx=0;entryDy=0;" edge="1" parent="1" source="ZItJcLic4sxObj78y93I-41" target="ZItJcLic4sxObj78y93I-55">
          <mxGeometry relative="1" as="geometry" />
        </mxCell>
        <mxCell id="ZItJcLic4sxObj78y93I-58" value="&lt;div style=&quot;font-size: 10px;&quot;&gt;&lt;font style=&quot;font-size: 10px;&quot;&gt;&lt;i&gt;(Timeout or &lt;br&gt;&lt;/i&gt;&lt;/font&gt;&lt;/div&gt;&lt;div style=&quot;font-size: 10px;&quot;&gt;&lt;font style=&quot;font-size: 10px;&quot;&gt;&lt;i&gt;response other&lt;/i&gt;&lt;/font&gt;&lt;/div&gt;&lt;div style=&quot;font-size: 10px;&quot;&gt;&lt;font style=&quot;font-size: 10px;&quot;&gt;&lt;i&gt;than confirmation)&lt;br&gt;&lt;/i&gt;&lt;/font&gt;&lt;/div&gt;" style="edgeLabel;html=1;align=center;verticalAlign=middle;resizable=0;points=[];" vertex="1" connectable="0" parent="ZItJcLic4sxObj78y93I-56">
          <mxGeometry x="-0.2111" y="3" relative="1" as="geometry">
            <mxPoint x="7" y="-1" as="offset" />
          </mxGeometry>
        </mxCell>
        <mxCell id="ZItJcLic4sxObj78y93I-67" style="edgeStyle=orthogonalEdgeStyle;rounded=0;orthogonalLoop=1;jettySize=auto;html=1;exitX=0.5;exitY=1;exitDx=0;exitDy=0;entryX=1;entryY=0.5;entryDx=0;entryDy=0;" edge="1" parent="1" source="ZItJcLic4sxObj78y93I-41" target="ZItJcLic4sxObj78y93I-47">
          <mxGeometry relative="1" as="geometry" />
        </mxCell>
        <mxCell id="ZItJcLic4sxObj78y93I-68" value="&lt;div&gt;&lt;font style=&quot;font-size: 10px;&quot;&gt;&lt;i&gt;(No workers&lt;/i&gt;&lt;/font&gt;&lt;/div&gt;&lt;div&gt;&lt;font style=&quot;font-size: 10px;&quot;&gt;&lt;i&gt;remaining)&lt;/i&gt;&lt;/font&gt;&lt;/div&gt;" style="edgeLabel;html=1;align=center;verticalAlign=middle;resizable=0;points=[];" vertex="1" connectable="0" parent="ZItJcLic4sxObj78y93I-67">
          <mxGeometry x="-0.672" y="1" relative="1" as="geometry">
            <mxPoint x="-1" y="18" as="offset" />
          </mxGeometry>
        </mxCell>
        <mxCell id="ZItJcLic4sxObj78y93I-41" value="&lt;div&gt;Send PING to next worker&lt;br&gt;&lt;/div&gt;" style="rounded=0;whiteSpace=wrap;html=1;" vertex="1" parent="1">
          <mxGeometry x="570" y="440" width="120" height="60" as="geometry" />
        </mxCell>
        <mxCell id="ZItJcLic4sxObj78y93I-76" style="edgeStyle=orthogonalEdgeStyle;rounded=0;orthogonalLoop=1;jettySize=auto;html=1;exitX=0.5;exitY=1;exitDx=0;exitDy=0;entryX=0.5;entryY=0;entryDx=0;entryDy=0;" edge="1" parent="1" source="ZItJcLic4sxObj78y93I-47" target="ZItJcLic4sxObj78y93I-75">
          <mxGeometry relative="1" as="geometry" />
        </mxCell>
        <mxCell id="ZItJcLic4sxObj78y93I-47" value="Split private key into shares and encrypt worker public keys" style="rounded=0;whiteSpace=wrap;html=1;" vertex="1" parent="1">
          <mxGeometry x="390" y="540" width="120" height="60" as="geometry" />
        </mxCell>
        <mxCell id="ZItJcLic4sxObj78y93I-59" style="edgeStyle=orthogonalEdgeStyle;rounded=0;orthogonalLoop=1;jettySize=auto;html=1;exitX=0;exitY=0.75;exitDx=0;exitDy=0;entryX=1;entryY=0.75;entryDx=0;entryDy=0;" edge="1" parent="1" source="ZItJcLic4sxObj78y93I-55" target="ZItJcLic4sxObj78y93I-41">
          <mxGeometry relative="1" as="geometry" />
        </mxCell>
        <mxCell id="ZItJcLic4sxObj78y93I-60" value="&lt;font style=&quot;font-size: 10px;&quot;&gt;&lt;i&gt;(Acknowledged)&lt;/i&gt;&lt;/font&gt;" style="edgeLabel;html=1;align=center;verticalAlign=middle;resizable=0;points=[];" vertex="1" connectable="0" parent="ZItJcLic4sxObj78y93I-59">
          <mxGeometry x="0.2095" y="3" relative="1" as="geometry">
            <mxPoint x="13" y="-5" as="offset" />
          </mxGeometry>
        </mxCell>
        <mxCell id="ZItJcLic4sxObj78y93I-66" style="edgeStyle=orthogonalEdgeStyle;rounded=0;orthogonalLoop=1;jettySize=auto;html=1;exitX=0.5;exitY=1;exitDx=0;exitDy=0;entryX=0.5;entryY=1;entryDx=0;entryDy=0;" edge="1" parent="1" source="ZItJcLic4sxObj78y93I-55" target="ZItJcLic4sxObj78y93I-31">
          <mxGeometry relative="1" as="geometry">
            <Array as="points">
              <mxPoint x="860" y="520" />
              <mxPoint x="450" y="520" />
            </Array>
          </mxGeometry>
        </mxCell>
        <mxCell id="ZItJcLic4sxObj78y93I-69" value="&lt;div style=&quot;font-size: 10px;&quot;&gt;&lt;font style=&quot;font-size: 10px;&quot;&gt;&lt;i&gt;(Worker fails to acknowledge&lt;/i&gt;&lt;/font&gt;&lt;/div&gt;&lt;div style=&quot;font-size: 10px;&quot;&gt;&lt;font style=&quot;font-size: 10px;&quot;&gt;&lt;i&gt;before submission deadline)&lt;br&gt;&lt;/i&gt;&lt;/font&gt;&lt;/div&gt;" style="edgeLabel;html=1;align=center;verticalAlign=middle;resizable=0;points=[];" vertex="1" connectable="0" parent="ZItJcLic4sxObj78y93I-66">
          <mxGeometry x="-0.7361" relative="1" as="geometry">
            <mxPoint x="33" y="14" as="offset" />
          </mxGeometry>
        </mxCell>
        <mxCell id="ZItJcLic4sxObj78y93I-55" value="&lt;div&gt;Resend PING to individual worker&lt;br&gt;&lt;/div&gt;" style="rounded=0;whiteSpace=wrap;html=1;" vertex="1" parent="1">
          <mxGeometry x="800" y="440" width="120" height="60" as="geometry" />
        </mxCell>
        <mxCell id="ZItJcLic4sxObj78y93I-62" style="edgeStyle=orthogonalEdgeStyle;rounded=0;orthogonalLoop=1;jettySize=auto;html=1;exitX=0.25;exitY=0;exitDx=0;exitDy=0;entryX=0.75;entryY=0;entryDx=0;entryDy=0;" edge="1" parent="1" source="ZItJcLic4sxObj78y93I-55" target="ZItJcLic4sxObj78y93I-55">
          <mxGeometry relative="1" as="geometry">
            <Array as="points">
              <mxPoint x="860" y="420" />
              <mxPoint x="920" y="420" />
            </Array>
          </mxGeometry>
        </mxCell>
        <mxCell id="ZItJcLic4sxObj78y93I-63" value="&lt;div style=&quot;font-size: 10px;&quot;&gt;&lt;font style=&quot;font-size: 10px;&quot;&gt;&lt;i&gt;(Timeout or response&lt;/i&gt;&lt;/font&gt;&lt;/div&gt;&lt;div style=&quot;font-size: 10px;&quot;&gt;&lt;font style=&quot;font-size: 10px;&quot;&gt;&lt;i&gt;other than confirmation)&lt;br&gt;&lt;/i&gt;&lt;/font&gt;&lt;/div&gt;" style="edgeLabel;html=1;align=center;verticalAlign=middle;resizable=0;points=[];" vertex="1" connectable="0" parent="ZItJcLic4sxObj78y93I-62">
          <mxGeometry x="0.08" y="2" relative="1" as="geometry">
            <mxPoint x="-6" y="-13" as="offset" />
          </mxGeometry>
        </mxCell>
        <mxCell id="ZItJcLic4sxObj78y93I-71" style="edgeStyle=orthogonalEdgeStyle;rounded=0;orthogonalLoop=1;jettySize=auto;html=1;exitX=0.25;exitY=0;exitDx=0;exitDy=0;entryX=0.75;entryY=0;entryDx=0;entryDy=0;" edge="1" parent="1" source="ZItJcLic4sxObj78y93I-41" target="ZItJcLic4sxObj78y93I-41">
          <mxGeometry relative="1" as="geometry">
            <Array as="points">
              <mxPoint x="600" y="420" />
              <mxPoint x="660" y="420" />
            </Array>
          </mxGeometry>
        </mxCell>
        <mxCell id="ZItJcLic4sxObj78y93I-74" value="&lt;div style=&quot;font-size: 10px;&quot;&gt;&lt;font style=&quot;font-size: 10px;&quot;&gt;&lt;i&gt;(Single worker&lt;/i&gt;&lt;/font&gt;&lt;/div&gt;&lt;div style=&quot;font-size: 10px;&quot;&gt;&lt;font style=&quot;font-size: 10px;&quot;&gt;&lt;i&gt;acknowledged,&lt;/i&gt;&lt;/font&gt;&lt;/div&gt;&lt;div style=&quot;font-size: 10px;&quot;&gt;&lt;font style=&quot;font-size: 10px;&quot;&gt;&lt;i&gt;more remaining)&lt;br&gt;&lt;/i&gt;&lt;/font&gt;&lt;/div&gt;" style="edgeLabel;html=1;align=center;verticalAlign=middle;resizable=0;points=[];" vertex="1" connectable="0" parent="ZItJcLic4sxObj78y93I-71">
          <mxGeometry x="0.0024" y="1" relative="1" as="geometry">
            <mxPoint y="-19" as="offset" />
          </mxGeometry>
        </mxCell>
        <mxCell id="ZItJcLic4sxObj78y93I-75" value="For each worker, send encrypted key" style="rounded=0;whiteSpace=wrap;html=1;" vertex="1" parent="1">
          <mxGeometry x="390" y="640" width="120" height="60" as="geometry" />
        </mxCell>
        <mxCell id="ZItJcLic4sxObj78y93I-77" style="edgeStyle=orthogonalEdgeStyle;rounded=0;orthogonalLoop=1;jettySize=auto;html=1;exitX=1;exitY=0.5;exitDx=0;exitDy=0;entryX=0;entryY=0.5;entryDx=0;entryDy=0;" edge="1" parent="1" target="ZItJcLic4sxObj78y93I-80">
          <mxGeometry relative="1" as="geometry">
            <mxPoint x="510" y="670" as="sourcePoint" />
          </mxGeometry>
        </mxCell>
        <mxCell id="ZItJcLic4sxObj78y93I-78" style="edgeStyle=orthogonalEdgeStyle;rounded=0;orthogonalLoop=1;jettySize=auto;html=1;exitX=1;exitY=0.25;exitDx=0;exitDy=0;entryX=0;entryY=0.25;entryDx=0;entryDy=0;" edge="1" parent="1" source="ZItJcLic4sxObj78y93I-80" target="ZItJcLic4sxObj78y93I-85">
          <mxGeometry relative="1" as="geometry" />
        </mxCell>
        <mxCell id="ZItJcLic4sxObj78y93I-79" value="&lt;div style=&quot;font-size: 10px;&quot;&gt;&lt;font style=&quot;font-size: 10px;&quot;&gt;&lt;i&gt;(Timeout or &lt;br&gt;&lt;/i&gt;&lt;/font&gt;&lt;/div&gt;&lt;div style=&quot;font-size: 10px;&quot;&gt;&lt;font style=&quot;font-size: 10px;&quot;&gt;&lt;i&gt;response other&lt;/i&gt;&lt;/font&gt;&lt;/div&gt;&lt;div style=&quot;font-size: 10px;&quot;&gt;&lt;font style=&quot;font-size: 10px;&quot;&gt;&lt;i&gt;than confirmation)&lt;br&gt;&lt;/i&gt;&lt;/font&gt;&lt;/div&gt;" style="edgeLabel;html=1;align=center;verticalAlign=middle;resizable=0;points=[];" vertex="1" connectable="0" parent="ZItJcLic4sxObj78y93I-78">
          <mxGeometry x="-0.2111" y="3" relative="1" as="geometry">
            <mxPoint x="7" y="-1" as="offset" />
          </mxGeometry>
        </mxCell>
        <mxCell id="ZItJcLic4sxObj78y93I-94" style="edgeStyle=orthogonalEdgeStyle;rounded=0;orthogonalLoop=1;jettySize=auto;html=1;exitX=0.5;exitY=1;exitDx=0;exitDy=0;entryX=0.5;entryY=0;entryDx=0;entryDy=0;" edge="1" parent="1" source="ZItJcLic4sxObj78y93I-80" target="ZItJcLic4sxObj78y93I-93">
          <mxGeometry relative="1" as="geometry">
            <Array as="points">
              <mxPoint x="630" y="720" />
              <mxPoint x="1040" y="720" />
              <mxPoint x="1040" y="20" />
            </Array>
          </mxGeometry>
        </mxCell>
        <mxCell id="ZItJcLic4sxObj78y93I-111" value="&lt;div style=&quot;font-size: 10px;&quot;&gt;&lt;font style=&quot;font-size: 10px;&quot;&gt;&lt;i&gt;(No workers remaining)&lt;br&gt;&lt;/i&gt;&lt;/font&gt;&lt;/div&gt;" style="edgeLabel;html=1;align=center;verticalAlign=middle;resizable=0;points=[];" vertex="1" connectable="0" parent="ZItJcLic4sxObj78y93I-94">
          <mxGeometry x="-0.9095" y="-3" relative="1" as="geometry">
            <mxPoint x="34" y="-4" as="offset" />
          </mxGeometry>
        </mxCell>
        <mxCell id="ZItJcLic4sxObj78y93I-80" value="&lt;div&gt;Send encrypted key to next worker&lt;br&gt;&lt;/div&gt;" style="rounded=0;whiteSpace=wrap;html=1;" vertex="1" parent="1">
          <mxGeometry x="570" y="640" width="120" height="60" as="geometry" />
        </mxCell>
        <mxCell id="ZItJcLic4sxObj78y93I-90" style="edgeStyle=orthogonalEdgeStyle;rounded=0;orthogonalLoop=1;jettySize=auto;html=1;exitX=1;exitY=0.5;exitDx=0;exitDy=0;entryX=0.5;entryY=1;entryDx=0;entryDy=0;" edge="1" parent="1" source="ZItJcLic4sxObj78y93I-85" target="ZItJcLic4sxObj78y93I-31">
          <mxGeometry relative="1" as="geometry">
            <Array as="points">
              <mxPoint x="940" y="670" />
              <mxPoint x="940" y="520" />
              <mxPoint x="450" y="520" />
            </Array>
          </mxGeometry>
        </mxCell>
        <mxCell id="ZItJcLic4sxObj78y93I-81" style="edgeStyle=orthogonalEdgeStyle;rounded=0;orthogonalLoop=1;jettySize=auto;html=1;exitX=0;exitY=0.75;exitDx=0;exitDy=0;entryX=1;entryY=0.75;entryDx=0;entryDy=0;" edge="1" parent="1" source="ZItJcLic4sxObj78y93I-85" target="ZItJcLic4sxObj78y93I-80">
          <mxGeometry relative="1" as="geometry" />
        </mxCell>
        <mxCell id="ZItJcLic4sxObj78y93I-82" value="&lt;font style=&quot;font-size: 10px;&quot;&gt;&lt;i&gt;(Acknowledged)&lt;/i&gt;&lt;/font&gt;" style="edgeLabel;html=1;align=center;verticalAlign=middle;resizable=0;points=[];" vertex="1" connectable="0" parent="ZItJcLic4sxObj78y93I-81">
          <mxGeometry x="0.2095" y="3" relative="1" as="geometry">
            <mxPoint x="13" y="-5" as="offset" />
          </mxGeometry>
        </mxCell>
        <mxCell id="ZItJcLic4sxObj78y93I-85" value="&lt;div&gt;Resend key to individual worker&lt;br&gt;&lt;/div&gt;" style="rounded=0;whiteSpace=wrap;html=1;" vertex="1" parent="1">
          <mxGeometry x="800" y="640" width="120" height="60" as="geometry" />
        </mxCell>
        <mxCell id="ZItJcLic4sxObj78y93I-86" style="edgeStyle=orthogonalEdgeStyle;rounded=0;orthogonalLoop=1;jettySize=auto;html=1;exitX=0.25;exitY=0;exitDx=0;exitDy=0;entryX=0.75;entryY=0;entryDx=0;entryDy=0;" edge="1" parent="1" source="ZItJcLic4sxObj78y93I-85" target="ZItJcLic4sxObj78y93I-85">
          <mxGeometry relative="1" as="geometry">
            <Array as="points">
              <mxPoint x="860" y="620" />
              <mxPoint x="920" y="620" />
            </Array>
          </mxGeometry>
        </mxCell>
        <mxCell id="ZItJcLic4sxObj78y93I-87" value="&lt;div style=&quot;font-size: 10px;&quot;&gt;&lt;font style=&quot;font-size: 10px;&quot;&gt;&lt;i&gt;(Timeout or response&lt;/i&gt;&lt;/font&gt;&lt;/div&gt;&lt;div style=&quot;font-size: 10px;&quot;&gt;&lt;font style=&quot;font-size: 10px;&quot;&gt;&lt;i&gt;other than confirmation)&lt;br&gt;&lt;/i&gt;&lt;/font&gt;&lt;/div&gt;" style="edgeLabel;html=1;align=center;verticalAlign=middle;resizable=0;points=[];" vertex="1" connectable="0" parent="ZItJcLic4sxObj78y93I-86">
          <mxGeometry x="0.08" y="2" relative="1" as="geometry">
            <mxPoint x="-6" y="-13" as="offset" />
          </mxGeometry>
        </mxCell>
        <mxCell id="ZItJcLic4sxObj78y93I-88" style="edgeStyle=orthogonalEdgeStyle;rounded=0;orthogonalLoop=1;jettySize=auto;html=1;exitX=0.25;exitY=0;exitDx=0;exitDy=0;entryX=0.75;entryY=0;entryDx=0;entryDy=0;" edge="1" parent="1" source="ZItJcLic4sxObj78y93I-80" target="ZItJcLic4sxObj78y93I-80">
          <mxGeometry relative="1" as="geometry">
            <Array as="points">
              <mxPoint x="600" y="620" />
              <mxPoint x="660" y="620" />
            </Array>
          </mxGeometry>
        </mxCell>
        <mxCell id="ZItJcLic4sxObj78y93I-89" value="&lt;div style=&quot;font-size: 10px;&quot;&gt;&lt;font style=&quot;font-size: 10px;&quot;&gt;&lt;i&gt;(Single worker&lt;/i&gt;&lt;/font&gt;&lt;/div&gt;&lt;div style=&quot;font-size: 10px;&quot;&gt;&lt;font style=&quot;font-size: 10px;&quot;&gt;&lt;i&gt;acknowledged,&lt;/i&gt;&lt;/font&gt;&lt;/div&gt;&lt;div style=&quot;font-size: 10px;&quot;&gt;&lt;font style=&quot;font-size: 10px;&quot;&gt;&lt;i&gt;more remaining)&lt;br&gt;&lt;/i&gt;&lt;/font&gt;&lt;/div&gt;" style="edgeLabel;html=1;align=center;verticalAlign=middle;resizable=0;points=[];" vertex="1" connectable="0" parent="ZItJcLic4sxObj78y93I-88">
          <mxGeometry x="0.0024" y="1" relative="1" as="geometry">
            <mxPoint y="-19" as="offset" />
          </mxGeometry>
        </mxCell>
        <mxCell id="ZItJcLic4sxObj78y93I-91" value="&lt;div style=&quot;font-size: 10px;&quot;&gt;&lt;font style=&quot;font-size: 10px;&quot;&gt;&lt;i&gt;(Worker fails to &lt;br&gt;&lt;/i&gt;&lt;/font&gt;&lt;/div&gt;&lt;div style=&quot;font-size: 10px;&quot;&gt;&lt;font style=&quot;font-size: 10px;&quot;&gt;&lt;i&gt;acknowledge&lt;/i&gt;&lt;/font&gt;&lt;/div&gt;&lt;div style=&quot;font-size: 10px;&quot;&gt;&lt;font style=&quot;font-size: 10px;&quot;&gt;&lt;i&gt;before submission &lt;br&gt;&lt;/i&gt;&lt;/font&gt;&lt;/div&gt;&lt;div style=&quot;font-size: 10px;&quot;&gt;&lt;font style=&quot;font-size: 10px;&quot;&gt;&lt;i&gt;deadline)&lt;br&gt;&lt;/i&gt;&lt;/font&gt;&lt;/div&gt;" style="edgeLabel;html=1;align=center;verticalAlign=middle;resizable=0;points=[];" vertex="1" connectable="0" parent="1">
          <mxGeometry x="983.9992307692307" y="597" as="geometry" />
        </mxCell>
        <mxCell id="ZItJcLic4sxObj78y93I-112" style="edgeStyle=orthogonalEdgeStyle;rounded=0;orthogonalLoop=1;jettySize=auto;html=1;exitX=0.5;exitY=1;exitDx=0;exitDy=0;entryX=0.5;entryY=0;entryDx=0;entryDy=0;" edge="1" parent="1" source="ZItJcLic4sxObj78y93I-93" target="ZItJcLic4sxObj78y93I-97">
          <mxGeometry relative="1" as="geometry" />
        </mxCell>
        <mxCell id="ZItJcLic4sxObj78y93I-141" value="&lt;font style=&quot;font-size: 10px;&quot;&gt;&lt;i&gt;(Receive hashes)&lt;br&gt;&lt;/i&gt;&lt;/font&gt;" style="edgeLabel;html=1;align=center;verticalAlign=middle;resizable=0;points=[];" vertex="1" connectable="0" parent="ZItJcLic4sxObj78y93I-112">
          <mxGeometry x="-0.1167" relative="1" as="geometry">
            <mxPoint as="offset" />
          </mxGeometry>
        </mxCell>
        <mxCell id="ZItJcLic4sxObj78y93I-139" style="edgeStyle=orthogonalEdgeStyle;rounded=0;orthogonalLoop=1;jettySize=auto;html=1;exitX=0;exitY=0.5;exitDx=0;exitDy=0;entryX=0;entryY=0.5;entryDx=0;entryDy=0;" edge="1" parent="1" source="ZItJcLic4sxObj78y93I-93" target="ZItJcLic4sxObj78y93I-31">
          <mxGeometry relative="1" as="geometry">
            <Array as="points">
              <mxPoint x="1060" y="70" />
              <mxPoint x="1060" y="740" />
              <mxPoint x="370" y="740" />
              <mxPoint x="370" y="470" />
            </Array>
          </mxGeometry>
        </mxCell>
        <mxCell id="ZItJcLic4sxObj78y93I-140" value="&lt;div style=&quot;font-size: 10px;&quot;&gt;&lt;font style=&quot;font-size: 10px;&quot;&gt;&lt;i&gt;(Hashes&lt;/i&gt;&lt;/font&gt;&lt;/div&gt;&lt;div style=&quot;font-size: 10px;&quot;&gt;&lt;font style=&quot;font-size: 10px;&quot;&gt;&lt;i&gt;not received&lt;/i&gt;&lt;/font&gt;&lt;/div&gt;&lt;div style=&quot;font-size: 10px;&quot;&gt;&lt;font style=&quot;font-size: 10px;&quot;&gt;&lt;i&gt;before&lt;/i&gt;&lt;/font&gt;&lt;/div&gt;&lt;div style=&quot;font-size: 10px;&quot;&gt;&lt;font style=&quot;font-size: 10px;&quot;&gt;&lt;i&gt;verification&lt;br&gt;&lt;/i&gt;&lt;/font&gt;&lt;/div&gt;&lt;div style=&quot;font-size: 10px;&quot;&gt;&lt;font style=&quot;font-size: 10px;&quot;&gt;&lt;i&gt;deadline)&lt;br&gt;&lt;/i&gt;&lt;/font&gt;&lt;/div&gt;" style="edgeLabel;html=1;align=center;verticalAlign=middle;resizable=0;points=[];" vertex="1" connectable="0" parent="ZItJcLic4sxObj78y93I-139">
          <mxGeometry x="-0.9541" y="-1" relative="1" as="geometry">
            <mxPoint as="offset" />
          </mxGeometry>
        </mxCell>
        <mxCell id="ZItJcLic4sxObj78y93I-93" value="Send hash request to Blockchain (via TSC)" style="rounded=0;whiteSpace=wrap;html=1;" vertex="1" parent="1">
          <mxGeometry x="1140" y="40" width="120" height="60" as="geometry" />
        </mxCell>
        <mxCell id="ZItJcLic4sxObj78y93I-95" style="edgeStyle=orthogonalEdgeStyle;rounded=0;orthogonalLoop=1;jettySize=auto;html=1;exitX=1;exitY=0.25;exitDx=0;exitDy=0;entryX=1;entryY=0.75;entryDx=0;entryDy=0;" edge="1" parent="1">
          <mxGeometry relative="1" as="geometry">
            <Array as="points">
              <mxPoint x="1290" y="55" />
              <mxPoint x="1290" y="85" />
            </Array>
            <mxPoint x="1260" y="55" as="sourcePoint" />
            <mxPoint x="1260" y="85" as="targetPoint" />
          </mxGeometry>
        </mxCell>
        <mxCell id="ZItJcLic4sxObj78y93I-96" value="&lt;div style=&quot;font-size: 10px;&quot;&gt;&lt;font style=&quot;font-size: 10px;&quot;&gt;&lt;i&gt;(Timeout OR response &lt;br&gt;&lt;/i&gt;&lt;/font&gt;&lt;/div&gt;&lt;div style=&quot;font-size: 10px;&quot;&gt;&lt;font style=&quot;font-size: 10px;&quot;&gt;&lt;i&gt;other than hashes,&lt;/i&gt;&lt;/font&gt;&lt;/div&gt;&lt;div style=&quot;font-size: 10px;&quot;&gt;&lt;font style=&quot;font-size: 10px;&quot;&gt;&lt;i&gt;e.g. info that hashes&lt;/i&gt;&lt;/font&gt;&lt;/div&gt;&lt;div style=&quot;font-size: 10px;&quot;&gt;&lt;font style=&quot;font-size: 10px;&quot;&gt;&lt;i&gt;are not available)&lt;br&gt;&lt;/i&gt;&lt;/font&gt;&lt;/div&gt;" style="edgeLabel;html=1;align=center;verticalAlign=middle;resizable=0;points=[];" vertex="1" connectable="0" parent="ZItJcLic4sxObj78y93I-95">
          <mxGeometry x="-0.0721" y="1" relative="1" as="geometry">
            <mxPoint x="54" y="1" as="offset" />
          </mxGeometry>
        </mxCell>
        <mxCell id="ZItJcLic4sxObj78y93I-116" style="edgeStyle=orthogonalEdgeStyle;rounded=0;orthogonalLoop=1;jettySize=auto;html=1;exitX=0.5;exitY=1;exitDx=0;exitDy=0;entryX=0.5;entryY=0;entryDx=0;entryDy=0;" edge="1" parent="1" source="ZItJcLic4sxObj78y93I-97" target="ZItJcLic4sxObj78y93I-115">
          <mxGeometry relative="1" as="geometry" />
        </mxCell>
        <mxCell id="ZItJcLic4sxObj78y93I-117" value="&lt;font style=&quot;font-size: 10px;&quot;&gt;&lt;i&gt;(Receive data)&lt;br&gt;&lt;/i&gt;&lt;/font&gt;" style="edgeLabel;html=1;align=center;verticalAlign=middle;resizable=0;points=[];" vertex="1" connectable="0" parent="ZItJcLic4sxObj78y93I-116">
          <mxGeometry x="-0.1727" y="-1" relative="1" as="geometry">
            <mxPoint as="offset" />
          </mxGeometry>
        </mxCell>
        <mxCell id="ZItJcLic4sxObj78y93I-142" style="edgeStyle=orthogonalEdgeStyle;rounded=0;orthogonalLoop=1;jettySize=auto;html=1;exitX=0;exitY=0.5;exitDx=0;exitDy=0;entryX=0;entryY=0.5;entryDx=0;entryDy=0;" edge="1" parent="1" source="ZItJcLic4sxObj78y93I-97" target="ZItJcLic4sxObj78y93I-31">
          <mxGeometry relative="1" as="geometry">
            <mxPoint x="1060" y="280" as="targetPoint" />
            <Array as="points">
              <mxPoint x="1060" y="170" />
              <mxPoint x="1060" y="740" />
              <mxPoint x="370" y="740" />
              <mxPoint x="370" y="470" />
            </Array>
          </mxGeometry>
        </mxCell>
        <mxCell id="ZItJcLic4sxObj78y93I-145" value="&lt;div style=&quot;font-size: 10px;&quot;&gt;&lt;font style=&quot;font-size: 10px;&quot;&gt;&lt;i&gt;(Data&lt;/i&gt;&lt;/font&gt;&lt;/div&gt;&lt;div style=&quot;font-size: 10px;&quot;&gt;&lt;font style=&quot;font-size: 10px;&quot;&gt;&lt;i&gt;not received&lt;/i&gt;&lt;/font&gt;&lt;/div&gt;&lt;div style=&quot;font-size: 10px;&quot;&gt;&lt;font style=&quot;font-size: 10px;&quot;&gt;&lt;i&gt;before&lt;/i&gt;&lt;/font&gt;&lt;/div&gt;&lt;div style=&quot;font-size: 10px;&quot;&gt;&lt;font style=&quot;font-size: 10px;&quot;&gt;&lt;i&gt;verification&lt;br&gt;&lt;/i&gt;&lt;/font&gt;&lt;/div&gt;&lt;div style=&quot;font-size: 10px;&quot;&gt;&lt;font style=&quot;font-size: 10px;&quot;&gt;&lt;i&gt;deadline)&lt;br&gt;&lt;/i&gt;&lt;/font&gt;&lt;/div&gt;" style="edgeLabel;html=1;align=center;verticalAlign=middle;resizable=0;points=[];" vertex="1" connectable="0" parent="ZItJcLic4sxObj78y93I-142">
          <mxGeometry x="-0.9434" y="1" relative="1" as="geometry">
            <mxPoint x="6" y="-1" as="offset" />
          </mxGeometry>
        </mxCell>
        <mxCell id="ZItJcLic4sxObj78y93I-97" value="Send sensory data request to Storage (for set of all hashes)" style="rounded=0;whiteSpace=wrap;html=1;" vertex="1" parent="1">
          <mxGeometry x="1140" y="140" width="120" height="60" as="geometry" />
        </mxCell>
        <mxCell id="ZItJcLic4sxObj78y93I-98" style="edgeStyle=orthogonalEdgeStyle;rounded=0;orthogonalLoop=1;jettySize=auto;html=1;exitX=1;exitY=0.25;exitDx=0;exitDy=0;entryX=0;entryY=0.25;entryDx=0;entryDy=0;" edge="1" parent="1" target="ZItJcLic4sxObj78y93I-102">
          <mxGeometry relative="1" as="geometry">
            <mxPoint x="690" y="235" as="sourcePoint" />
          </mxGeometry>
        </mxCell>
        <mxCell id="ZItJcLic4sxObj78y93I-99" value="&lt;div style=&quot;font-size: 10px;&quot;&gt;&lt;font style=&quot;font-size: 10px;&quot;&gt;&lt;i&gt;(Timeout or &lt;br&gt;&lt;/i&gt;&lt;/font&gt;&lt;/div&gt;&lt;div style=&quot;font-size: 10px;&quot;&gt;&lt;font style=&quot;font-size: 10px;&quot;&gt;&lt;i&gt;response other&lt;/i&gt;&lt;/font&gt;&lt;/div&gt;&lt;div style=&quot;font-size: 10px;&quot;&gt;&lt;font style=&quot;font-size: 10px;&quot;&gt;&lt;i&gt;than confirmation)&lt;br&gt;&lt;/i&gt;&lt;/font&gt;&lt;/div&gt;" style="edgeLabel;html=1;align=center;verticalAlign=middle;resizable=0;points=[];" vertex="1" connectable="0" parent="ZItJcLic4sxObj78y93I-98">
          <mxGeometry x="0.0423" y="1" relative="1" as="geometry">
            <mxPoint x="-7" as="offset" />
          </mxGeometry>
        </mxCell>
        <mxCell id="ZItJcLic4sxObj78y93I-100" style="edgeStyle=orthogonalEdgeStyle;rounded=0;orthogonalLoop=1;jettySize=auto;html=1;exitX=0;exitY=0.75;exitDx=0;exitDy=0;entryX=1;entryY=0.75;entryDx=0;entryDy=0;" edge="1" parent="1" source="ZItJcLic4sxObj78y93I-102">
          <mxGeometry relative="1" as="geometry">
            <mxPoint x="690" y="265" as="targetPoint" />
          </mxGeometry>
        </mxCell>
        <mxCell id="ZItJcLic4sxObj78y93I-101" value="&lt;font style=&quot;font-size: 10px;&quot;&gt;&lt;i&gt;(Acknowledged)&lt;br&gt;&lt;/i&gt;&lt;/font&gt;" style="edgeLabel;html=1;align=center;verticalAlign=middle;resizable=0;points=[];" vertex="1" connectable="0" parent="ZItJcLic4sxObj78y93I-100">
          <mxGeometry x="-0.0661" y="1" relative="1" as="geometry">
            <mxPoint x="-3" y="-3" as="offset" />
          </mxGeometry>
        </mxCell>
        <mxCell id="ZItJcLic4sxObj78y93I-102" value="Resend POST TASK for individual task " style="rounded=0;whiteSpace=wrap;html=1;" vertex="1" parent="1">
          <mxGeometry x="800" y="220" width="120" height="60" as="geometry" />
        </mxCell>
        <mxCell id="ZItJcLic4sxObj78y93I-103" style="edgeStyle=orthogonalEdgeStyle;rounded=0;orthogonalLoop=1;jettySize=auto;html=1;exitX=0.25;exitY=0;exitDx=0;exitDy=0;entryX=0.75;entryY=0;entryDx=0;entryDy=0;" edge="1" parent="1" source="ZItJcLic4sxObj78y93I-102" target="ZItJcLic4sxObj78y93I-102">
          <mxGeometry relative="1" as="geometry">
            <Array as="points">
              <mxPoint x="860" y="200" />
              <mxPoint x="920" y="200" />
            </Array>
          </mxGeometry>
        </mxCell>
        <mxCell id="ZItJcLic4sxObj78y93I-104" value="&lt;div style=&quot;font-size: 10px;&quot;&gt;&lt;font style=&quot;font-size: 10px;&quot;&gt;&lt;i&gt;(Timeout or response&lt;/i&gt;&lt;/font&gt;&lt;/div&gt;&lt;div style=&quot;font-size: 10px;&quot;&gt;&lt;font style=&quot;font-size: 10px;&quot;&gt;&lt;i&gt;other than confirmation)&lt;br&gt;&lt;/i&gt;&lt;/font&gt;&lt;/div&gt;" style="edgeLabel;html=1;align=center;verticalAlign=middle;resizable=0;points=[];" vertex="1" connectable="0" parent="ZItJcLic4sxObj78y93I-103">
          <mxGeometry x="0.0925" y="1" relative="1" as="geometry">
            <mxPoint x="-4" y="-13" as="offset" />
          </mxGeometry>
        </mxCell>
        <mxCell id="ZItJcLic4sxObj78y93I-106" style="edgeStyle=orthogonalEdgeStyle;rounded=0;orthogonalLoop=1;jettySize=auto;html=1;exitX=0.5;exitY=1;exitDx=0;exitDy=0;entryX=0.5;entryY=0;entryDx=0;entryDy=0;" edge="1" parent="1" source="ZItJcLic4sxObj78y93I-105" target="ZItJcLic4sxObj78y93I-11">
          <mxGeometry relative="1" as="geometry" />
        </mxCell>
        <mxCell id="ZItJcLic4sxObj78y93I-107" value="&lt;font style=&quot;font-size: 10px;&quot;&gt;&lt;i&gt;(No tasks remaining)&lt;br&gt;&lt;/i&gt;&lt;/font&gt;" style="edgeLabel;html=1;align=center;verticalAlign=middle;resizable=0;points=[];" vertex="1" connectable="0" parent="ZItJcLic4sxObj78y93I-106">
          <mxGeometry x="-0.2472" relative="1" as="geometry">
            <mxPoint x="-27" y="-2" as="offset" />
          </mxGeometry>
        </mxCell>
        <mxCell id="ZItJcLic4sxObj78y93I-105" value="Send POST TASK for next task" style="rounded=0;whiteSpace=wrap;html=1;" vertex="1" parent="1">
          <mxGeometry x="570" y="220" width="120" height="60" as="geometry" />
        </mxCell>
        <mxCell id="ZItJcLic4sxObj78y93I-109" style="edgeStyle=orthogonalEdgeStyle;rounded=0;orthogonalLoop=1;jettySize=auto;html=1;exitX=0.25;exitY=0;exitDx=0;exitDy=0;entryX=0.75;entryY=0;entryDx=0;entryDy=0;" edge="1" parent="1" source="ZItJcLic4sxObj78y93I-105" target="ZItJcLic4sxObj78y93I-105">
          <mxGeometry relative="1" as="geometry">
            <Array as="points">
              <mxPoint x="600" y="200" />
              <mxPoint x="660" y="200" />
            </Array>
          </mxGeometry>
        </mxCell>
        <mxCell id="ZItJcLic4sxObj78y93I-110" value="&lt;div style=&quot;font-size: 10px;&quot;&gt;&lt;font style=&quot;font-size: 10px;&quot;&gt;&lt;i&gt;(Single task&lt;br&gt;&lt;/i&gt;&lt;/font&gt;&lt;/div&gt;&lt;div style=&quot;font-size: 10px;&quot;&gt;&lt;font style=&quot;font-size: 10px;&quot;&gt;&lt;i&gt;acknowledged,&lt;/i&gt;&lt;/font&gt;&lt;/div&gt;&lt;div style=&quot;font-size: 10px;&quot;&gt;&lt;font style=&quot;font-size: 10px;&quot;&gt;&lt;i&gt;more remaining)&lt;br&gt;&lt;/i&gt;&lt;/font&gt;&lt;/div&gt;" style="edgeLabel;html=1;align=center;verticalAlign=middle;resizable=0;points=[];" vertex="1" connectable="0" parent="ZItJcLic4sxObj78y93I-109">
          <mxGeometry x="-0.0039" y="2" relative="1" as="geometry">
            <mxPoint y="-18" as="offset" />
          </mxGeometry>
        </mxCell>
        <mxCell id="ZItJcLic4sxObj78y93I-113" style="edgeStyle=orthogonalEdgeStyle;rounded=0;orthogonalLoop=1;jettySize=auto;html=1;exitX=1;exitY=0.25;exitDx=0;exitDy=0;entryX=1;entryY=0.75;entryDx=0;entryDy=0;" edge="1" parent="1">
          <mxGeometry relative="1" as="geometry">
            <Array as="points">
              <mxPoint x="1290" y="155" />
              <mxPoint x="1290" y="185" />
            </Array>
            <mxPoint x="1260" y="155" as="sourcePoint" />
            <mxPoint x="1260" y="185" as="targetPoint" />
          </mxGeometry>
        </mxCell>
        <mxCell id="ZItJcLic4sxObj78y93I-114" value="&lt;div style=&quot;font-size: 10px;&quot;&gt;&lt;font style=&quot;font-size: 10px;&quot;&gt;&lt;i&gt;(Timeout OR response&lt;br&gt;&lt;/i&gt;&lt;/font&gt;&lt;/div&gt;&lt;div style=&quot;font-size: 10px;&quot;&gt;&lt;font style=&quot;font-size: 10px;&quot;&gt;&lt;i&gt;other than sensory&lt;/i&gt;&lt;/font&gt;&lt;/div&gt;&lt;div style=&quot;font-size: 10px;&quot;&gt;&lt;font style=&quot;font-size: 10px;&quot;&gt;&lt;i&gt;data)&lt;br&gt;&lt;/i&gt;&lt;/font&gt;&lt;/div&gt;" style="edgeLabel;html=1;align=center;verticalAlign=middle;resizable=0;points=[];" vertex="1" connectable="0" parent="ZItJcLic4sxObj78y93I-113">
          <mxGeometry x="-0.0721" y="1" relative="1" as="geometry">
            <mxPoint x="54" y="1" as="offset" />
          </mxGeometry>
        </mxCell>
        <mxCell id="ZItJcLic4sxObj78y93I-119" style="edgeStyle=orthogonalEdgeStyle;rounded=0;orthogonalLoop=1;jettySize=auto;html=1;exitX=0.5;exitY=1;exitDx=0;exitDy=0;" edge="1" parent="1" source="ZItJcLic4sxObj78y93I-115" target="ZItJcLic4sxObj78y93I-118">
          <mxGeometry relative="1" as="geometry" />
        </mxCell>
        <mxCell id="ZItJcLic4sxObj78y93I-120" value="&lt;div style=&quot;font-size: 10px;&quot;&gt;&lt;font style=&quot;font-size: 10px;&quot;&gt;&lt;i&gt;(Verification complete&lt;/i&gt;&lt;/font&gt;&lt;/div&gt;&lt;div style=&quot;font-size: 10px;&quot;&gt;&lt;font style=&quot;font-size: 10px;&quot;&gt;&lt;i&gt;before verification deadline)&lt;br&gt;&lt;/i&gt;&lt;/font&gt;&lt;/div&gt;" style="edgeLabel;html=1;align=center;verticalAlign=middle;resizable=0;points=[];" vertex="1" connectable="0" parent="ZItJcLic4sxObj78y93I-119">
          <mxGeometry x="-0.0364" y="1" relative="1" as="geometry">
            <mxPoint y="-2" as="offset" />
          </mxGeometry>
        </mxCell>
        <mxCell id="ZItJcLic4sxObj78y93I-146" style="edgeStyle=orthogonalEdgeStyle;rounded=0;orthogonalLoop=1;jettySize=auto;html=1;exitX=0;exitY=0.5;exitDx=0;exitDy=0;entryX=0;entryY=0.5;entryDx=0;entryDy=0;" edge="1" parent="1" source="ZItJcLic4sxObj78y93I-115" target="ZItJcLic4sxObj78y93I-31">
          <mxGeometry relative="1" as="geometry">
            <Array as="points">
              <mxPoint x="1060" y="270" />
              <mxPoint x="1060" y="740" />
              <mxPoint x="370" y="740" />
              <mxPoint x="370" y="470" />
            </Array>
          </mxGeometry>
        </mxCell>
        <mxCell id="ZItJcLic4sxObj78y93I-147" value="&lt;div style=&quot;font-size: 10px;&quot;&gt;&lt;font style=&quot;font-size: 10px;&quot;&gt;&lt;i&gt;(Evaluation&lt;/i&gt;&lt;/font&gt;&lt;/div&gt;&lt;div style=&quot;font-size: 10px;&quot;&gt;&lt;font style=&quot;font-size: 10px;&quot;&gt;&lt;i&gt;not completed&lt;br&gt;&lt;/i&gt;&lt;/font&gt;&lt;/div&gt;&lt;div style=&quot;font-size: 10px;&quot;&gt;&lt;font style=&quot;font-size: 10px;&quot;&gt;&lt;i&gt;before&lt;/i&gt;&lt;/font&gt;&lt;/div&gt;&lt;div style=&quot;font-size: 10px;&quot;&gt;&lt;font style=&quot;font-size: 10px;&quot;&gt;&lt;i&gt;verification&lt;br&gt;&lt;/i&gt;&lt;/font&gt;&lt;/div&gt;&lt;div style=&quot;font-size: 10px;&quot;&gt;&lt;font style=&quot;font-size: 10px;&quot;&gt;&lt;i&gt;deadline)&lt;br&gt;&lt;/i&gt;&lt;/font&gt;&lt;/div&gt;" style="edgeLabel;html=1;align=center;verticalAlign=middle;resizable=0;points=[];" vertex="1" connectable="0" parent="ZItJcLic4sxObj78y93I-146">
          <mxGeometry x="-0.9533" relative="1" as="geometry">
            <mxPoint x="-5" as="offset" />
          </mxGeometry>
        </mxCell>
        <mxCell id="ZItJcLic4sxObj78y93I-115" value="&lt;div&gt;&lt;b&gt;Evaluation Process&lt;/b&gt; &lt;b&gt;and Weight Update&lt;/b&gt;&lt;br&gt;&lt;/div&gt;&lt;div&gt;(Can be generalized)&lt;br&gt;&lt;/div&gt;" style="rounded=0;whiteSpace=wrap;html=1;" vertex="1" parent="1">
          <mxGeometry x="1140" y="240" width="120" height="60" as="geometry" />
        </mxCell>
        <mxCell id="ZItJcLic4sxObj78y93I-129" style="edgeStyle=orthogonalEdgeStyle;rounded=0;orthogonalLoop=1;jettySize=auto;html=1;exitX=1;exitY=0.5;exitDx=0;exitDy=0;entryX=0;entryY=0.5;entryDx=0;entryDy=0;" edge="1" parent="1" source="ZItJcLic4sxObj78y93I-118" target="ZItJcLic4sxObj78y93I-121">
          <mxGeometry relative="1" as="geometry" />
        </mxCell>
        <mxCell id="ZItJcLic4sxObj78y93I-118" value="For all workers, send weight broadcast" style="rounded=0;whiteSpace=wrap;html=1;" vertex="1" parent="1">
          <mxGeometry x="1140" y="340" width="120" height="60" as="geometry" />
        </mxCell>
        <mxCell id="ZItJcLic4sxObj78y93I-131" style="edgeStyle=orthogonalEdgeStyle;rounded=0;orthogonalLoop=1;jettySize=auto;html=1;exitX=0.5;exitY=1;exitDx=0;exitDy=0;entryX=1;entryY=0.25;entryDx=0;entryDy=0;" edge="1" parent="1" source="ZItJcLic4sxObj78y93I-121" target="ZItJcLic4sxObj78y93I-130">
          <mxGeometry relative="1" as="geometry" />
        </mxCell>
        <mxCell id="ZItJcLic4sxObj78y93I-132" value="&lt;font style=&quot;font-size: 10px;&quot;&gt;&lt;i&gt;(No workers remaining)&lt;br&gt;&lt;/i&gt;&lt;/font&gt;" style="edgeLabel;html=1;align=center;verticalAlign=middle;resizable=0;points=[];" vertex="1" connectable="0" parent="ZItJcLic4sxObj78y93I-131">
          <mxGeometry x="-0.3409" y="4" relative="1" as="geometry">
            <mxPoint x="3" y="-19" as="offset" />
          </mxGeometry>
        </mxCell>
        <mxCell id="ZItJcLic4sxObj78y93I-121" value="Send weight broadcast to next worker" style="rounded=0;whiteSpace=wrap;html=1;" vertex="1" parent="1">
          <mxGeometry x="1320" y="340" width="120" height="60" as="geometry" />
        </mxCell>
        <mxCell id="ZItJcLic4sxObj78y93I-122" style="edgeStyle=orthogonalEdgeStyle;rounded=0;orthogonalLoop=1;jettySize=auto;html=1;exitX=1;exitY=0.25;exitDx=0;exitDy=0;entryX=0;entryY=0.25;entryDx=0;entryDy=0;" edge="1" parent="1" target="ZItJcLic4sxObj78y93I-126">
          <mxGeometry relative="1" as="geometry">
            <mxPoint x="1440" y="355" as="sourcePoint" />
          </mxGeometry>
        </mxCell>
        <mxCell id="ZItJcLic4sxObj78y93I-123" value="&lt;div style=&quot;font-size: 10px;&quot;&gt;&lt;font style=&quot;font-size: 10px;&quot;&gt;&lt;i&gt;(Timeout or &lt;br&gt;&lt;/i&gt;&lt;/font&gt;&lt;/div&gt;&lt;div style=&quot;font-size: 10px;&quot;&gt;&lt;font style=&quot;font-size: 10px;&quot;&gt;&lt;i&gt;response other&lt;/i&gt;&lt;/font&gt;&lt;/div&gt;&lt;div style=&quot;font-size: 10px;&quot;&gt;&lt;font style=&quot;font-size: 10px;&quot;&gt;&lt;i&gt;than confirmation)&lt;br&gt;&lt;/i&gt;&lt;/font&gt;&lt;/div&gt;" style="edgeLabel;html=1;align=center;verticalAlign=middle;resizable=0;points=[];" vertex="1" connectable="0" parent="ZItJcLic4sxObj78y93I-122">
          <mxGeometry x="-0.2111" y="3" relative="1" as="geometry">
            <mxPoint x="7" y="-1" as="offset" />
          </mxGeometry>
        </mxCell>
        <mxCell id="ZItJcLic4sxObj78y93I-124" style="edgeStyle=orthogonalEdgeStyle;rounded=0;orthogonalLoop=1;jettySize=auto;html=1;exitX=0;exitY=0.75;exitDx=0;exitDy=0;entryX=1;entryY=0.75;entryDx=0;entryDy=0;" edge="1" parent="1" source="ZItJcLic4sxObj78y93I-126">
          <mxGeometry relative="1" as="geometry">
            <mxPoint x="1440" y="385" as="targetPoint" />
          </mxGeometry>
        </mxCell>
        <mxCell id="ZItJcLic4sxObj78y93I-125" value="&lt;font style=&quot;font-size: 10px;&quot;&gt;&lt;i&gt;(Acknowledged)&lt;/i&gt;&lt;/font&gt;" style="edgeLabel;html=1;align=center;verticalAlign=middle;resizable=0;points=[];" vertex="1" connectable="0" parent="ZItJcLic4sxObj78y93I-124">
          <mxGeometry x="0.2095" y="3" relative="1" as="geometry">
            <mxPoint x="13" y="-5" as="offset" />
          </mxGeometry>
        </mxCell>
        <mxCell id="ZItJcLic4sxObj78y93I-148" style="edgeStyle=orthogonalEdgeStyle;rounded=0;orthogonalLoop=1;jettySize=auto;html=1;exitX=0.5;exitY=1;exitDx=0;exitDy=0;entryX=0;entryY=0.5;entryDx=0;entryDy=0;" edge="1" parent="1" source="ZItJcLic4sxObj78y93I-126" target="ZItJcLic4sxObj78y93I-31">
          <mxGeometry relative="1" as="geometry">
            <Array as="points">
              <mxPoint x="1610" y="420" />
              <mxPoint x="1060" y="420" />
              <mxPoint x="1060" y="740" />
              <mxPoint x="370" y="740" />
              <mxPoint x="370" y="470" />
            </Array>
          </mxGeometry>
        </mxCell>
        <mxCell id="ZItJcLic4sxObj78y93I-149" value="&lt;div style=&quot;font-size: 10px;&quot;&gt;&lt;font style=&quot;font-size: 10px;&quot;&gt;&lt;i&gt;(Worker fails to acknowledge&lt;/i&gt;&lt;/font&gt;&lt;/div&gt;&lt;div style=&quot;font-size: 10px;&quot;&gt;&lt;font style=&quot;font-size: 10px;&quot;&gt;&lt;i&gt;before verification deadline)&lt;br&gt;&lt;/i&gt;&lt;/font&gt;&lt;/div&gt;" style="edgeLabel;html=1;align=center;verticalAlign=middle;resizable=0;points=[];" vertex="1" connectable="0" parent="ZItJcLic4sxObj78y93I-148">
          <mxGeometry x="-0.8924" y="-1" relative="1" as="geometry">
            <mxPoint x="-29" as="offset" />
          </mxGeometry>
        </mxCell>
        <mxCell id="ZItJcLic4sxObj78y93I-126" value="&lt;div&gt;Resend broadcast to individual worker&lt;br&gt;&lt;/div&gt;" style="rounded=0;whiteSpace=wrap;html=1;" vertex="1" parent="1">
          <mxGeometry x="1550" y="340" width="120" height="60" as="geometry" />
        </mxCell>
        <mxCell id="ZItJcLic4sxObj78y93I-127" style="edgeStyle=orthogonalEdgeStyle;rounded=0;orthogonalLoop=1;jettySize=auto;html=1;exitX=0.25;exitY=0;exitDx=0;exitDy=0;entryX=0.75;entryY=0;entryDx=0;entryDy=0;" edge="1" parent="1" source="ZItJcLic4sxObj78y93I-126" target="ZItJcLic4sxObj78y93I-126">
          <mxGeometry relative="1" as="geometry">
            <Array as="points">
              <mxPoint x="1610" y="320" />
              <mxPoint x="1670" y="320" />
            </Array>
          </mxGeometry>
        </mxCell>
        <mxCell id="ZItJcLic4sxObj78y93I-128" value="&lt;div style=&quot;font-size: 10px;&quot;&gt;&lt;font style=&quot;font-size: 10px;&quot;&gt;&lt;i&gt;(Timeout or response&lt;/i&gt;&lt;/font&gt;&lt;/div&gt;&lt;div style=&quot;font-size: 10px;&quot;&gt;&lt;font style=&quot;font-size: 10px;&quot;&gt;&lt;i&gt;other than confirmation)&lt;br&gt;&lt;/i&gt;&lt;/font&gt;&lt;/div&gt;" style="edgeLabel;html=1;align=center;verticalAlign=middle;resizable=0;points=[];" vertex="1" connectable="0" parent="ZItJcLic4sxObj78y93I-127">
          <mxGeometry x="0.08" y="2" relative="1" as="geometry">
            <mxPoint x="-6" y="-13" as="offset" />
          </mxGeometry>
        </mxCell>
        <mxCell id="ZItJcLic4sxObj78y93I-136" style="edgeStyle=orthogonalEdgeStyle;rounded=0;orthogonalLoop=1;jettySize=auto;html=1;exitX=0.5;exitY=1;exitDx=0;exitDy=0;entryX=0;entryY=0.25;entryDx=0;entryDy=0;" edge="1" parent="1" source="ZItJcLic4sxObj78y93I-130" target="ZItJcLic4sxObj78y93I-31">
          <mxGeometry relative="1" as="geometry">
            <mxPoint x="1179.64" y="440" as="sourcePoint" />
            <mxPoint x="1179.64" y="590" as="targetPoint" />
            <Array as="points">
              <mxPoint x="1200" y="760" />
              <mxPoint x="350" y="760" />
              <mxPoint x="350" y="455" />
            </Array>
          </mxGeometry>
        </mxCell>
        <mxCell id="ZItJcLic4sxObj78y93I-137" value="&lt;div style=&quot;font-size: 10px;&quot;&gt;&lt;font style=&quot;font-size: 10px;&quot;&gt;&lt;i&gt;(Acknowledged,&lt;/i&gt;&lt;/font&gt;&lt;/div&gt;&lt;div style=&quot;font-size: 10px;&quot;&gt;&lt;font style=&quot;font-size: 10px;&quot;&gt;&lt;i&gt;verification process&lt;/i&gt;&lt;/font&gt;&lt;/div&gt;&lt;div style=&quot;font-size: 10px;&quot;&gt;&lt;font style=&quot;font-size: 10px;&quot;&gt;&lt;i&gt;occurs, rewards are&lt;br&gt;&lt;/i&gt;&lt;/font&gt;&lt;/div&gt;&lt;div style=&quot;font-size: 10px;&quot;&gt;&lt;font style=&quot;font-size: 10px;&quot;&gt;&lt;i&gt;distributed according&lt;/i&gt;&lt;/font&gt;&lt;/div&gt;&lt;div style=&quot;font-size: 10px;&quot;&gt;&lt;font style=&quot;font-size: 10px;&quot;&gt;&lt;i&gt;to TSC assuming that&lt;br&gt;&lt;/i&gt;&lt;/font&gt;&lt;/div&gt;&lt;div style=&quot;font-size: 10px;&quot;&gt;&lt;font style=&quot;font-size: 10px;&quot;&gt;&lt;i&gt;verification completes)&lt;br&gt;&lt;/i&gt;&lt;/font&gt;&lt;/div&gt;" style="edgeLabel;html=1;align=center;verticalAlign=middle;resizable=0;points=[];" vertex="1" connectable="0" parent="ZItJcLic4sxObj78y93I-136">
          <mxGeometry x="0.05" relative="1" as="geometry">
            <mxPoint x="503" y="-208" as="offset" />
          </mxGeometry>
        </mxCell>
        <mxCell id="ZItJcLic4sxObj78y93I-150" style="edgeStyle=orthogonalEdgeStyle;rounded=0;orthogonalLoop=1;jettySize=auto;html=1;exitX=0;exitY=0.5;exitDx=0;exitDy=0;entryX=0;entryY=0.5;entryDx=0;entryDy=0;" edge="1" parent="1" source="ZItJcLic4sxObj78y93I-130" target="ZItJcLic4sxObj78y93I-31">
          <mxGeometry relative="1" as="geometry">
            <Array as="points">
              <mxPoint x="1060" y="470" />
              <mxPoint x="1060" y="740" />
              <mxPoint x="370" y="740" />
              <mxPoint x="370" y="470" />
            </Array>
          </mxGeometry>
        </mxCell>
        <mxCell id="ZItJcLic4sxObj78y93I-151" value="&lt;div style=&quot;font-size: 10px;&quot;&gt;&lt;font style=&quot;font-size: 10px;&quot;&gt;&lt;i&gt;(Confirmation&lt;/i&gt;&lt;/font&gt;&lt;/div&gt;&lt;div style=&quot;font-size: 10px;&quot;&gt;&lt;font style=&quot;font-size: 10px;&quot;&gt;&lt;i&gt;not received&lt;br&gt;&lt;/i&gt;&lt;/font&gt;&lt;/div&gt;&lt;div style=&quot;font-size: 10px;&quot;&gt;&lt;font style=&quot;font-size: 10px;&quot;&gt;&lt;i&gt;before&lt;/i&gt;&lt;/font&gt;&lt;/div&gt;&lt;div style=&quot;font-size: 10px;&quot;&gt;&lt;font style=&quot;font-size: 10px;&quot;&gt;&lt;i&gt;verification&lt;br&gt;&lt;/i&gt;&lt;/font&gt;&lt;/div&gt;&lt;div style=&quot;font-size: 10px;&quot;&gt;&lt;font style=&quot;font-size: 10px;&quot;&gt;&lt;i&gt;deadline)&lt;br&gt;&lt;/i&gt;&lt;/font&gt;&lt;/div&gt;" style="edgeLabel;html=1;align=center;verticalAlign=middle;resizable=0;points=[];" vertex="1" connectable="0" parent="ZItJcLic4sxObj78y93I-150">
          <mxGeometry x="-0.9345" relative="1" as="geometry">
            <mxPoint x="3" as="offset" />
          </mxGeometry>
        </mxCell>
        <mxCell id="ZItJcLic4sxObj78y93I-130" value="Send weight broadcast to Blockchain (via TSC)" style="rounded=0;whiteSpace=wrap;html=1;" vertex="1" parent="1">
          <mxGeometry x="1140" y="440" width="120" height="60" as="geometry" />
        </mxCell>
        <mxCell id="ZItJcLic4sxObj78y93I-133" style="edgeStyle=orthogonalEdgeStyle;rounded=0;orthogonalLoop=1;jettySize=auto;html=1;exitX=1;exitY=0.25;exitDx=0;exitDy=0;entryX=1;entryY=0.75;entryDx=0;entryDy=0;" edge="1" parent="1">
          <mxGeometry relative="1" as="geometry">
            <mxPoint x="1260" y="470" as="sourcePoint" />
            <mxPoint x="1260" y="500" as="targetPoint" />
            <Array as="points">
              <mxPoint x="1290" y="470" />
              <mxPoint x="1290" y="500" />
            </Array>
          </mxGeometry>
        </mxCell>
        <mxCell id="ZItJcLic4sxObj78y93I-134" value="&lt;div style=&quot;font-size: 10px;&quot;&gt;&lt;font style=&quot;font-size: 10px;&quot;&gt;&lt;i&gt;(Timeout or response&lt;/i&gt;&lt;/font&gt;&lt;/div&gt;&lt;div style=&quot;font-size: 10px;&quot;&gt;&lt;font style=&quot;font-size: 10px;&quot;&gt;&lt;i&gt;other than confirmation)&lt;br&gt;&lt;/i&gt;&lt;/font&gt;&lt;/div&gt;" style="edgeLabel;html=1;align=center;verticalAlign=middle;resizable=0;points=[];" vertex="1" connectable="0" parent="ZItJcLic4sxObj78y93I-133">
          <mxGeometry x="-0.0222" y="1" relative="1" as="geometry">
            <mxPoint x="56" y="-1" as="offset" />
          </mxGeometry>
        </mxCell>
        <mxCell id="ZItJcLic4sxObj78y93I-152" style="edgeStyle=orthogonalEdgeStyle;rounded=0;orthogonalLoop=1;jettySize=auto;html=1;exitX=0.5;exitY=1;exitDx=0;exitDy=0;entryX=0.5;entryY=0;entryDx=0;entryDy=0;" edge="1" parent="1" source="ZItJcLic4sxObj78y93I-153" target="ZItJcLic4sxObj78y93I-155">
          <mxGeometry relative="1" as="geometry" />
        </mxCell>
        <mxCell id="ZItJcLic4sxObj78y93I-153" value="INITIALIZE" style="rounded=0;whiteSpace=wrap;html=1;" vertex="1" parent="1">
          <mxGeometry x="119.94" y="25" width="120" height="30" as="geometry" />
        </mxCell>
        <mxCell id="ZItJcLic4sxObj78y93I-154" style="edgeStyle=orthogonalEdgeStyle;rounded=0;orthogonalLoop=1;jettySize=auto;html=1;exitX=0.5;exitY=1;exitDx=0;exitDy=0;entryX=0.5;entryY=0;entryDx=0;entryDy=0;" edge="1" parent="1" source="ZItJcLic4sxObj78y93I-155" target="ZItJcLic4sxObj78y93I-157">
          <mxGeometry relative="1" as="geometry" />
        </mxCell>
        <mxCell id="ZItJcLic4sxObj78y93I-155" value="REGISTER" style="rounded=0;whiteSpace=wrap;html=1;" vertex="1" parent="1">
          <mxGeometry x="119.94" y="75" width="120" height="30" as="geometry" />
        </mxCell>
        <mxCell id="ZItJcLic4sxObj78y93I-156" style="edgeStyle=orthogonalEdgeStyle;rounded=0;orthogonalLoop=1;jettySize=auto;html=1;exitX=0.5;exitY=1;exitDx=0;exitDy=0;entryX=0.5;entryY=0;entryDx=0;entryDy=0;" edge="1" parent="1" source="ZItJcLic4sxObj78y93I-157">
          <mxGeometry relative="1" as="geometry">
            <mxPoint x="179.93999999999977" y="175" as="targetPoint" />
          </mxGeometry>
        </mxCell>
        <mxCell id="ZItJcLic4sxObj78y93I-157" value="POST TASK" style="rounded=0;whiteSpace=wrap;html=1;" vertex="1" parent="1">
          <mxGeometry x="119.94" y="125" width="120" height="30" as="geometry" />
        </mxCell>
        <mxCell id="ZItJcLic4sxObj78y93I-158" style="edgeStyle=orthogonalEdgeStyle;rounded=0;orthogonalLoop=1;jettySize=auto;html=1;exitX=0.5;exitY=1;exitDx=0;exitDy=0;entryX=0.5;entryY=0;entryDx=0;entryDy=0;" edge="1" parent="1" source="ZItJcLic4sxObj78y93I-160" target="ZItJcLic4sxObj78y93I-163">
          <mxGeometry relative="1" as="geometry" />
        </mxCell>
        <mxCell id="ZItJcLic4sxObj78y93I-160" value="QUERY TASK STATUS" style="rounded=0;whiteSpace=wrap;html=1;" vertex="1" parent="1">
          <mxGeometry x="119.94" y="175" width="120" height="30" as="geometry" />
        </mxCell>
        <mxCell id="ZItJcLic4sxObj78y93I-161" style="edgeStyle=orthogonalEdgeStyle;rounded=0;orthogonalLoop=1;jettySize=auto;html=1;exitX=0.5;exitY=1;exitDx=0;exitDy=0;entryX=0.5;entryY=0;entryDx=0;entryDy=0;" edge="1" parent="1" source="ZItJcLic4sxObj78y93I-163">
          <mxGeometry relative="1" as="geometry">
            <mxPoint x="179.94" y="275" as="targetPoint" />
          </mxGeometry>
        </mxCell>
        <mxCell id="ZItJcLic4sxObj78y93I-163" value="SEND PING" style="rounded=0;whiteSpace=wrap;html=1;" vertex="1" parent="1">
          <mxGeometry x="119.94" y="225" width="120" height="30" as="geometry" />
        </mxCell>
        <mxCell id="ZItJcLic4sxObj78y93I-164" style="edgeStyle=orthogonalEdgeStyle;rounded=0;orthogonalLoop=1;jettySize=auto;html=1;exitX=0.5;exitY=1;exitDx=0;exitDy=0;entryX=0.5;entryY=0;entryDx=0;entryDy=0;" edge="1" parent="1" source="ZItJcLic4sxObj78y93I-166" target="ZItJcLic4sxObj78y93I-169">
          <mxGeometry relative="1" as="geometry" />
        </mxCell>
        <mxCell id="ZItJcLic4sxObj78y93I-166" value="COMPUTE KEY-SHARE" style="rounded=0;whiteSpace=wrap;html=1;" vertex="1" parent="1">
          <mxGeometry x="119.94" y="275" width="120" height="30" as="geometry" />
        </mxCell>
        <mxCell id="ZItJcLic4sxObj78y93I-167" style="edgeStyle=orthogonalEdgeStyle;rounded=0;orthogonalLoop=1;jettySize=auto;html=1;exitX=0.5;exitY=1;exitDx=0;exitDy=0;entryX=0.5;entryY=0;entryDx=0;entryDy=0;" edge="1" parent="1" source="ZItJcLic4sxObj78y93I-169" target="ZItJcLic4sxObj78y93I-172">
          <mxGeometry relative="1" as="geometry" />
        </mxCell>
        <mxCell id="ZItJcLic4sxObj78y93I-169" value="SEND KEY-SHARE" style="rounded=0;whiteSpace=wrap;html=1;" vertex="1" parent="1">
          <mxGeometry x="119.94" y="325" width="120" height="30" as="geometry" />
        </mxCell>
        <mxCell id="ZItJcLic4sxObj78y93I-170" style="edgeStyle=orthogonalEdgeStyle;rounded=0;orthogonalLoop=1;jettySize=auto;html=1;exitX=0.5;exitY=1;exitDx=0;exitDy=0;entryX=0.5;entryY=0;entryDx=0;entryDy=0;" edge="1" parent="1" source="ZItJcLic4sxObj78y93I-172" target="ZItJcLic4sxObj78y93I-175">
          <mxGeometry relative="1" as="geometry" />
        </mxCell>
        <mxCell id="ZItJcLic4sxObj78y93I-172" value="REQUEST HASHES" style="rounded=0;whiteSpace=wrap;html=1;" vertex="1" parent="1">
          <mxGeometry x="119.94" y="375" width="120" height="30" as="geometry" />
        </mxCell>
        <mxCell id="ZItJcLic4sxObj78y93I-173" style="edgeStyle=orthogonalEdgeStyle;rounded=0;orthogonalLoop=1;jettySize=auto;html=1;exitX=0.5;exitY=1;exitDx=0;exitDy=0;entryX=0.5;entryY=0;entryDx=0;entryDy=0;" edge="1" parent="1" source="ZItJcLic4sxObj78y93I-175" target="ZItJcLic4sxObj78y93I-178">
          <mxGeometry relative="1" as="geometry" />
        </mxCell>
        <mxCell id="ZItJcLic4sxObj78y93I-175" value="REQUEST DATA" style="rounded=0;whiteSpace=wrap;html=1;" vertex="1" parent="1">
          <mxGeometry x="119.94" y="425" width="120" height="30" as="geometry" />
        </mxCell>
        <mxCell id="ZItJcLic4sxObj78y93I-176" style="edgeStyle=orthogonalEdgeStyle;rounded=0;orthogonalLoop=1;jettySize=auto;html=1;exitX=0.5;exitY=1;exitDx=0;exitDy=0;entryX=0.5;entryY=0;entryDx=0;entryDy=0;" edge="1" parent="1" source="ZItJcLic4sxObj78y93I-178" target="ZItJcLic4sxObj78y93I-181">
          <mxGeometry relative="1" as="geometry" />
        </mxCell>
        <mxCell id="ZItJcLic4sxObj78y93I-178" value="EVALUATE" style="rounded=0;whiteSpace=wrap;html=1;" vertex="1" parent="1">
          <mxGeometry x="119.94" y="475" width="120" height="30" as="geometry" />
        </mxCell>
        <mxCell id="ZItJcLic4sxObj78y93I-179" style="edgeStyle=orthogonalEdgeStyle;rounded=0;orthogonalLoop=1;jettySize=auto;html=1;exitX=0.5;exitY=1;exitDx=0;exitDy=0;entryX=0.5;entryY=0;entryDx=0;entryDy=0;" edge="1" parent="1" source="ZItJcLic4sxObj78y93I-181" target="ZItJcLic4sxObj78y93I-184">
          <mxGeometry relative="1" as="geometry" />
        </mxCell>
        <mxCell id="ZItJcLic4sxObj78y93I-181" value="SEND WEIGHTS (WORKERS)" style="rounded=0;whiteSpace=wrap;html=1;" vertex="1" parent="1">
          <mxGeometry x="119.94" y="525" width="120" height="30" as="geometry" />
        </mxCell>
        <mxCell id="ZItJcLic4sxObj78y93I-184" value="SEND WEIGHTS (BLOCKCHAIN)" style="rounded=0;whiteSpace=wrap;html=1;" vertex="1" parent="1">
          <mxGeometry x="119.94" y="575" width="120" height="30" as="geometry" />
        </mxCell>
      </root>
    </mxGraphModel>
  </diagram>
</mxfile>
